<?xml version="1.0" encoding="UTF-8" standalone="no"?>
<!-- Created with Inkscape (http://www.inkscape.org/) -->

<svg
   version="1.1"
   id="svg2"
   width="3200"
   height="2666.6667"
   viewBox="0 0 3200 2666.6667"
   sodipodi:docname="vecteezy_silhouette-of-bison-illustration-of-bison_.eps"
   xmlns:inkscape="http://www.inkscape.org/namespaces/inkscape"
   xmlns:sodipodi="http://sodipodi.sourceforge.net/DTD/sodipodi-0.dtd"
   xmlns="http://www.w3.org/2000/svg"
   xmlns:svg="http://www.w3.org/2000/svg">
  <defs
     id="defs6" />
  <sodipodi:namedview
     id="namedview4"
     pagecolor="#ffffff"
     bordercolor="#000000"
     borderopacity="0.25"
     inkscape:showpageshadow="2"
     inkscape:pageopacity="0.0"
     inkscape:pagecheckerboard="0"
     inkscape:deskcolor="#d1d1d1" />
  <g
     id="g8"
     inkscape:groupmode="layer"
     inkscape:label="ink_ext_XXXXXX"
     transform="matrix(1.3333333,0,0,-1.3333333,0,2666.6667)">
    <g
       id="g10"
       transform="scale(0.1)">
      <path
         d="M 24000,20000 H 0 V 0 h 24000 v 20000"
         style="fill:#ffffff;fill-opacity:1;fill-rule:evenodd;stroke:none"
         id="path12" />
      <path
         d="m 17622.2,13920.2 c 0,0 1496.8,0 1778.6,-1408.8 281.8,-1408.7 -228.9,-1778.6 -228.9,-1778.6 0,0 -211.3,-633.9 -422.7,-898.06 -211.3,-264.15 -457.8,-616.35 -669.1,-950.93 -211.4,-334.59 -792.5,-1127.04 -1074.2,-1021.38 -281.8,105.66 -581.2,563.52 -880.5,369.81 l -140.9,-193.71 c 0,0 369.8,-35.22 722,-281.76 0,0 -400.7,-307.17 -992.6,-491.18 -161,-49.71 -333.9,27.82 -403.9,181.11 -113.2,249.6 -247.4,637.62 -170.8,944.03 0,0 -440.2,739.61 -457.8,1250.3 0,0 -134,-522.79 327.6,-1290.4 0,0 -127,-704.13 248.1,-1165.76 0,0 -1171.2,-152.94 -1565.7,-152.94 0,0 366.3,873.45 309.9,1197.47 l -705,944.9 -1027.8,365.28 929.8,-464.9 676.2,-901.63 c 0,0 -459.8,-820.48 -396.7,-1154.08 63.1,-333.6 -45.1,-486.88 -45.1,-486.88 l -820.4,-982.77 -18.1,126.23 -108.2,-108.2 c 0,0 -414.7,477.86 -441.8,991.79 0,0 414.8,315.57 504.9,450.81 l 18.1,342.62 -108.2,-252.45 c 0,0 -991.8,117.21 -1406.6,261.47 -414.7,144.26 -2461.22,597.01 -3363.73,332.86 C 6786.17,7430.3 6654.09,7144.14 5927.69,6703.89 5201.28,6263.65 5311.34,4766.81 5311.34,4194.49 H 4518.9 c 0,0 -66.04,968.54 308.17,1188.66 0,0 330.18,1144.65 220.12,1496.84 0,0 440.25,594.34 506.29,1122.63 66.03,528.3 594.33,2443.38 594.33,2443.38 0,0 -368.34,23.5 -485.74,-152.6 -117.4,-176.1 -258.28,-446.14 -669.17,-493.1 0,0 -93.92,622.2 387.41,798.3 481.34,176.1 857.02,58.7 857.02,58.7 0,0 66.98,173.1 108.57,280.5 21.43,55.4 53.46,106 94.29,149.1 257.03,262.6 1279.6,1237.6 2510.34,1454.2 82.63,14.7 162.74,41 237.9,78.4 357.31,178.9 1414.37,725 2003.17,1207.6 716.1,587 704.4,328.7 704.4,328.7 0,0 1302.6,1727.8 2547.5,1667.1 1444,-70.5 3178.7,-1902.7 3178.7,-1902.7"
         style="fill:#000000;fill-opacity:1;fill-rule:evenodd;stroke:none"
         id="path14" />
      <path
         d="m 10282.7,7367.26 c 0,0 -1602.88,299.21 -2265.41,203.04 0,0 -181.66,-192.35 -374,-352.64 -192.35,-160.29 -149.61,-384.69 10.68,-1132.71 160.29,-748.01 21.37,-1335.74 21.37,-1335.74 0,0 42.75,-149.6 256.47,-203.03 0,0 -96.18,-351.69 74.8,-351.69 170.97,0 683.9,-97.12 983.1,148.65 0,0 -972.42,1357.12 -694.58,2137.19 0,0 277.83,213.72 737.33,299.21 459.49,85.48 544.98,363.32 544.98,363.32 l 170.98,-213.72 c 0,0 128.23,309.89 534.28,438.12"
         style="fill:#000000;fill-opacity:1;fill-rule:evenodd;stroke:none"
         id="path16" />
      <path
         d="m 15811.5,7064.72 c 0,0 342,23.41 1143.4,524.63 0,0 363.3,-449.83 480.9,-930.7 0,0 715.9,-448.81 908.3,-951.05 0,0 299.2,-277.83 374,-512.92 0,0 -716,-149.6 -993.8,-245.78 0,0 -138.9,224.41 -138.9,320.58 0,0 -534.3,619.79 -619.8,1047.22 0,0 -737.3,448.81 -1154.1,748.02"
         style="fill:#000000;fill-opacity:1;fill-rule:evenodd;stroke:none"
         id="path18" />
      <path
         d="m 16039.5,12913.7 c 0,0 -960.1,813.9 -229.6,1502.7 0,0 -1189.6,-438.3 -333.9,-1899.3 0,0 109.8,-40.3 198.7,34.9 0,0 136.7,0 164.1,164.2 0,0 155.2,-1.7 200.7,197.5"
         style="fill:#ffffff;fill-opacity:1;fill-rule:evenodd;stroke:none"
         id="path20" />
    </g>
  </g>
</svg>
