<?xml version="1.0" standalone="no"?>
<svg xmlns="http://www.w3.org/2000/svg" viewBox="0 0 125.45 36" width="125.45" height="36"><g fill="#ffd700" color="#ffd700" transform="translate(0 3.9999999999999982) scale(0.2800001)"><svg width="100.0" height="100.0" x="0.0" y="0.0" viewBox="0 0 100 100"><g><polygon points="67.362,78.578 72.226,81.008 76.505,81.008 70.391,67.274  "></polygon><polygon points="75.639,26.483 74.17,18.992 48.896,18.992 10.87,38.643 5,55.204 6.045,55.204 10.851,41.511 10.851,55.204    6.567,69.83 10.746,81.008 15.029,81.008 13.937,69.83 24.578,54.355 49.326,64.223 53.353,78.991 56.555,81.008 60.835,81.008    72.226,60.427 76.927,61.502 76.927,67.639 84.135,69.83 95,56.98 95,31.907  "></polygon><polygon points="18.933,73.861 22.028,81.008 26.309,81.008 25.11,62.557  "></polygon></g></svg></g><path fill="#ffd700" fill-rule="nonzero" d="M9.85 17.17Q8.99 17.86 7.62 18.23Q6.25 18.61 4.25 18.61Q2.25 18.61 0 18.25L0 18.25L0 2.80Q2.27 2.44 3.94 2.44Q5.61 2.44 6.69 2.75Q7.76 3.07 8.44 3.61L8.44 3.61Q9.77 4.65 9.77 6.31Q9.77 7.97 8.57 9.06L8.57 9.06Q10.00 9.50 10.78 10.75L10.78 10.75Q11.50 11.86 11.50 13.21Q11.50 14.57 11.10 15.53Q10.71 16.49 9.85 17.17ZM3.11 4.97L3.11 8.63Q3.60 8.71 4.34 8.71Q5.07 8.71 5.55 8.51Q6.02 8.32 6.28 8.03L6.28 8.03Q6.70 7.55 6.70 6.69L6.70 6.69Q6.70 4.90 4.59 4.90L4.59 4.90Q3.70 4.90 3.11 4.97L3.11 4.97ZM4.84 11.13L4.84 11.13Q3.86 11.13 3.11 11.26L3.11 11.26L3.11 15.87Q3.93 16.08 4.83 16.08Q5.73 16.08 6.42 15.86Q7.10 15.64 7.57 15.27L7.57 15.27Q8.52 14.50 8.52 13.30L8.52 13.30Q8.52 11.13 4.84 11.13ZM16.00 4.48L13.36 2.58Q14.30 1.11 15.32 0L15.32 0L17.84 1.98Q17.33 2.60 16.90 3.20L16.90 3.20Q16.90 3.20 16.00 4.48L16.00 4.48ZM16.44 6.07L16.44 17.00Q16.44 18.01 16.49 18.32L16.49 18.32L13.51 18.32L13.51 6.07L16.44 6.07ZM23.87 18.49L23.87 18.49Q20.57 18.49 18.89 17.29L18.89 17.29Q18.91 16.93 18.96 16.49L18.96 16.49L19.07 15.64Q19.16 14.81 19.18 14.61Q19.21 14.40 19.22 14.38Q19.23 14.37 19.41 14.57Q19.58 14.78 20.07 15.07Q20.57 15.36 21.21 15.59L21.21 15.59Q22.61 16.07 24.12 16.07L24.12 16.07Q26.14 16.07 26.14 14.72L26.14 14.72Q26.14 14.29 25.76 14.07L25.76 14.07Q25.07 13.72 23.72 13.54Q22.38 13.36 21.53 13.01Q20.67 12.66 20.13 12.16L20.13 12.16Q19.14 11.24 19.14 9.74L19.14 9.74Q19.14 7.91 20.54 6.87L20.54 6.87Q21.94 5.84 24.40 5.84L24.40 5.84Q26.84 5.84 28.56 7.22L28.56 7.22Q28.48 7.52 28.38 7.80L28.38 7.80Q28.11 8.58 27.98 8.92L27.98 8.92L27.71 9.61Q27.69 9.70 27.68 9.70L27.68 9.70Q27.66 9.70 27.49 9.46L27.49 9.46Q26.75 8.60 25.20 8.33L25.20 8.33Q24.71 8.24 24.21 8.24L24.21 8.24Q22.08 8.24 22.08 9.53L22.08 9.53Q22.08 9.97 22.52 10.21L22.52 10.21Q23.36 10.65 24.80 10.86Q26.25 11.07 27 11.43Q27.75 11.79 28.21 12.29L28.21 12.29Q29.05 13.21 29.05 14.72L29.05 14.72Q29.05 16.37 27.73 17.40L27.73 17.40Q26.34 18.49 23.87 18.49ZM30.88 12.26L30.88 12.26Q30.88 10.97 31.32 9.79Q31.76 8.61 32.58 7.73L32.58 7.73Q34.37 5.84 37.23 5.84L37.23 5.84Q40.08 5.84 41.75 7.63L41.75 7.63Q43.36 9.34 43.36 12.07L43.36 12.07Q43.36 14.80 41.71 16.59L41.71 16.59Q39.96 18.49 37.08 18.49L37.08 18.49Q34.10 18.49 32.41 16.63L32.41 16.63Q30.88 14.93 30.88 12.26ZM33.73 12.19L33.73 12.19Q33.73 12.93 33.97 13.62Q34.22 14.31 34.68 14.80L34.68 14.80Q35.65 15.87 37.23 15.87L37.23 15.87Q38.70 15.87 39.54 14.82L39.54 14.82Q40.36 13.82 40.36 12.20L40.36 12.20Q40.36 10.56 39.52 9.55L39.52 9.55Q38.61 8.47 37.04 8.47L37.04 8.47Q35.45 8.47 34.55 9.62L34.55 9.62Q33.73 10.68 33.73 12.19ZM48.88 10.13L48.88 16.82Q48.88 17.85 48.97 18.32L48.97 18.32L46.03 18.32L46.03 6.07L48.88 6.07L48.88 7.11Q50.43 5.84 52.18 5.84L52.18 5.84Q54.11 5.84 55.25 7.14Q56.40 8.45 56.40 10.58L56.40 10.58L56.40 15.25Q56.40 17.23 56.46 17.63Q56.52 18.02 56.62 18.14Q56.72 18.26 56.79 18.35L56.79 18.35L56.77 18.40Q55.82 18.32 55.38 18.32L55.38 18.32L54.56 18.32Q54.19 18.32 53.55 18.35L53.55 18.35L53.55 11.96Q53.55 8.53 51.47 8.53L51.47 8.53Q49.92 8.53 48.88 10.13L48.88 10.13ZM71.31 13.23L71.31 2.67Q72.04 2.73 72.36 2.73L72.36 2.73L73.28 2.73Q73.85 2.73 74.41 2.64L74.41 2.64L74.41 13.14Q74.41 15.71 73.04 17.19L73.04 17.19Q71.74 18.61 69.53 18.61L69.53 18.61Q68.00 18.61 66.97 18L66.97 18Q66.59 17.78 66.20 17.46L66.20 17.46L66.20 14.07L66.28 14.05Q66.77 14.82 67.44 15.32Q68.10 15.81 69.08 15.81L69.08 15.81Q71.31 15.81 71.31 13.23L71.31 13.23ZM76.97 12.26L76.97 12.26Q76.97 10.97 77.41 9.79Q77.85 8.61 78.67 7.73L78.67 7.73Q80.46 5.84 83.32 5.84L83.32 5.84Q86.17 5.84 87.84 7.63L87.84 7.63Q89.45 9.34 89.45 12.07L89.45 12.07Q89.45 14.80 87.80 16.59L87.80 16.59Q86.05 18.49 83.17 18.49L83.17 18.49Q80.19 18.49 78.50 16.63L78.50 16.63Q76.97 14.93 76.97 12.26ZM79.82 12.19L79.82 12.19Q79.82 12.93 80.06 13.62Q80.31 14.31 80.77 14.80L80.77 14.80Q81.74 15.87 83.32 15.87L83.32 15.87Q84.79 15.87 85.63 14.82L85.63 14.82Q86.45 13.82 86.45 12.20L86.45 12.20Q86.45 10.56 85.61 9.55L85.61 9.55Q84.70 8.47 83.13 8.47L83.13 8.47Q81.54 8.47 80.64 9.62L80.64 9.62Q79.82 10.68 79.82 12.19Z" transform="translate(36, 8.696)"></path></svg>