<?xml version="1.0" standalone="no"?>
<!DOCTYPE svg PUBLIC "-//W3C//DTD SVG 20010904//EN"
 "http://www.w3.org/TR/2001/REC-SVG-20010904/DTD/svg10.dtd">
<svg version="1.0" xmlns="http://www.w3.org/2000/svg"
 width="224.000000pt" height="440.000000pt" viewBox="0 0 224.000000 440.000000"
 preserveAspectRatio="xMidYMid meet">

<g transform="translate(0.000000,440.000000) scale(0.100000,-0.100000)"
fill="#000000" stroke="none">
<path d="M1025 3887 c-63 -21 -87 -36 -136 -87 -68 -70 -84 -124 -84 -281 0
-90 -4 -130 -13 -142 -8 -9 -10 -21 -6 -28 8 -14 14 -190 7 -203 -3 -4 -9 -2
-14 5 -7 11 -9 10 -9 -3 0 -21 -16 -24 -23 -5 -4 8 -6 8 -6 -2 -1 -11 -5 -10
-15 4 -12 17 -17 18 -38 7 -14 -8 -40 -11 -66 -8 -47 6 -45 9 -33 -69 6 -33 5
-57 -2 -70 -6 -11 -10 -23 -9 -27 1 -4 -9 -10 -23 -14 -14 -3 -25 -10 -25 -15
0 -5 -6 -9 -12 -9 -7 0 -24 -9 -38 -20 -14 -11 -20 -20 -15 -19 6 0 19 6 29
14 10 8 23 12 27 9 5 -3 9 0 9 5 0 6 12 11 28 10 15 0 21 -3 14 -6 -10 -4 -10
-8 -1 -20 17 -20 1 -29 -64 -36 -39 -5 -55 -3 -69 9 -15 15 -16 19 -3 44 8 15
26 42 41 59 14 17 23 31 19 31 -11 0 -42 -34 -62 -68 -18 -28 -22 -31 -33 -17
-7 8 -16 15 -21 15 -5 0 -9 -80 -9 -178 0 -214 -5 -205 145 -219 28 -2 60 -9
72 -15 14 -7 59 -8 130 -3 213 13 263 14 268 5 9 -15 25 -12 19 3 -3 8 -24 24
-46 37 -126 70 -198 196 -157 272 15 27 29 7 29 -42 0 -35 32 -100 48 -100 15
0 47 -33 71 -73 22 -35 57 -64 74 -59 4 1 7 -3 7 -9 0 -8 5 -8 15 1 10 8 15 9
15 2 0 -6 7 -9 15 -6 8 4 15 15 15 25 0 10 7 19 15 19 9 0 18 7 21 15 9 23 33
18 40 -9 4 -18 15 -26 40 -31 19 -3 38 -3 43 0 5 3 11 -1 13 -7 3 -7 18 10 34
37 27 47 32 50 75 53 41 3 47 1 52 -20 4 -13 7 -35 7 -50 0 -29 24 -39 33 -15
3 6 8 -3 12 -20 l8 -33 193 0 194 0 0 93 0 92 -34 23 c-23 16 -59 27 -106 33
-46 5 -81 16 -97 29 -14 11 -34 20 -45 20 -26 0 -189 81 -195 97 -3 8 3 24 13
36 28 32 53 81 53 103 1 52 -1 194 -2 231 -2 48 -17 60 -17 14 0 -16 -4 -31
-10 -33 -5 -1 -11 -12 -13 -23 -5 -38 -42 -104 -57 -105 -8 0 -24 -7 -34 -15
-11 -8 -28 -13 -38 -9 -12 4 -18 0 -18 -11 0 -14 -6 -15 -32 -9 -18 4 -40 6
-48 5 -40 -6 -84 -1 -90 10 -5 7 -18 9 -34 5 -30 -7 -33 -1 -11 20 8 9 15 26
15 40 0 23 3 24 59 24 50 0 62 4 75 22 14 19 14 24 2 37 -13 12 -19 11 -51 -8
l-36 -21 -38 22 c-43 25 -76 19 -68 -12 7 -27 -1 -25 -13 3 -8 18 -10 14 -9
-23 1 -68 1 -70 -24 -70 -30 0 -57 29 -57 60 0 13 -7 31 -16 41 -9 10 -19 33
-24 53 -7 31 -5 36 19 45 14 6 39 13 54 17 16 4 31 12 33 19 3 6 12 12 21 12
12 0 14 -9 11 -49 -6 -53 1 -59 34 -26 15 15 18 23 9 26 -9 3 -9 8 2 21 8 9
17 38 20 64 5 55 -12 80 -65 91 -21 4 -28 10 -25 21 4 8 2 17 -3 20 -6 4 -10
-1 -10 -9 0 -9 -6 -16 -13 -16 -11 0 -12 14 -5 68 4 37 6 73 3 81 -3 8 0 18 7
23 10 6 10 8 1 8 -23 0 -13 20 10 20 16 0 18 3 9 9 -30 19 222 37 283 21 17
-5 43 -11 58 -14 33 -8 60 -62 70 -141 8 -64 14 -92 23 -107 4 -6 11 -25 15
-42 5 -19 7 13 6 84 -2 100 -5 121 -27 163 -61 119 -148 179 -270 184 -44 2
-92 -3 -115 -10z m-75 -447 c-8 -5 -19 -10 -25 -10 -5 0 -3 5 5 10 8 5 20 10
25 10 6 0 3 -5 -5 -10z m-240 -300 c0 -5 -4 -10 -10 -10 -5 0 -10 5 -10 10 0
6 5 10 10 10 6 0 10 -4 10 -10z m515 -97 c-20 -15 -20 -15 3 -8 13 4 22 2 22
-4 0 -6 -7 -11 -15 -11 -8 0 -15 -4 -15 -9 0 -10 -69 -24 -113 -23 -28 1 -105
58 -87 64 6 2 58 4 118 5 98 2 105 1 87 -14z m20 -110 c-4 -10 -8 -25 -8 -33
-1 -31 -50 -60 -90 -53 -20 4 -27 1 -27 -10 0 -10 -6 -13 -20 -10 -11 3 -17 9
-14 14 3 5 -1 9 -8 9 -18 0 -39 36 -32 55 6 16 11 17 104 33 90 15 103 15 95
-5z m-845 -23 c0 -5 -4 -10 -10 -10 -5 0 -10 5 -10 10 0 6 5 10 10 10 6 0 10
-4 10 -10z m25 -30 c3 -5 1 -10 -4 -10 -6 0 -11 5 -11 10 0 6 2 10 4 10 3 0 8
-4 11 -10z"/>
<path d="M1371 3574 c0 -11 3 -14 6 -6 3 7 2 16 -1 19 -3 4 -6 -2 -5 -13z"/>
<path d="M1309 3540 c-8 -4 -43 -10 -79 -14 -68 -7 -74 -9 -84 -42 -5 -15 0
-24 18 -34 21 -11 23 -16 14 -33 -9 -17 -8 -19 7 -14 9 4 23 7 31 7 9 0 12 5
9 10 -9 15 4 12 21 -4 11 -11 11 -16 1 -20 -13 -7 86 2 120 10 15 4 20 11 16
22 -9 24 -21 30 -75 37 -52 7 -60 18 -27 35 21 12 75 5 97 -13 16 -12 24 -5
17 15 -8 21 -68 48 -86 38z m-6 -87 c-7 -2 -21 -2 -30 0 -10 3 -4 5 12 5 17 0
24 -2 18 -5z"/>
<path d="M1392 3456 c7 -8 15 -12 17 -11 5 6 -10 25 -20 25 -5 0 -4 -6 3 -14z"/>
<path d="M1450 3374 c0 -8 5 -12 10 -9 6 3 10 10 10 16 0 5 -4 9 -10 9 -5 0
-10 -7 -10 -16z"/>
<path d="M1215 3210 c-3 -5 -1 -10 4 -10 6 0 11 5 11 10 0 6 -2 10 -4 10 -3 0
-8 -4 -11 -10z"/>
<path d="M1043 1730 c-23 -5 -56 -16 -74 -25 -52 -28 -126 -112 -144 -165 -17
-52 -34 -268 -34 -443 0 -73 -3 -107 -11 -102 -5 3 -10 -1 -10 -9 0 -20 -11
-20 -36 -1 -25 19 -35 19 -28 0 4 -8 1 -15 -5 -15 -6 0 -11 3 -11 8 0 4 -24 7
-52 6 l-53 -1 3 -53 c6 -81 -4 -119 -33 -126 -14 -3 -25 -9 -25 -13 0 -3 -13
-12 -30 -19 -16 -8 -30 -18 -30 -23 0 -5 8 -5 20 1 11 5 29 15 40 20 22 11 47
14 37 3 -4 -3 -2 -13 5 -20 9 -11 9 -16 -1 -23 -23 -14 -102 -20 -122 -10 -27
15 -24 40 11 88 17 23 26 42 21 42 -4 0 -21 -18 -36 -40 -30 -43 -35 -46 -53
-28 -20 20 -24 -14 -20 -181 2 -129 6 -163 19 -176 19 -19 168 -47 259 -48 36
-1 124 1 197 4 87 5 135 3 142 -4 6 -6 13 -8 17 -4 3 3 -15 21 -42 39 -78 53
-132 107 -154 152 -21 44 -26 101 -11 125 12 19 31 5 31 -24 0 -39 31 -105 55
-118 13 -7 42 -36 65 -66 23 -29 51 -56 61 -58 11 -3 19 -10 19 -16 0 -8 3 -8
11 0 6 6 18 9 26 6 9 -4 16 2 20 16 3 11 11 21 18 21 7 0 15 7 19 15 8 23 31
18 44 -9 15 -34 99 -49 115 -20 26 46 66 75 99 72 30 -3 34 -7 44 -48 8 -32
16 -45 28 -44 9 1 19 -8 22 -22 l6 -24 194 0 194 0 0 93 0 93 -39 22 c-21 12
-61 25 -87 28 -51 7 -115 31 -249 95 -118 56 -114 49 -74 110 34 53 34 54 37
191 2 83 -1 144 -7 155 -9 16 -10 16 -11 -4 0 -12 -15 -55 -33 -95 -29 -64
-39 -75 -72 -88 -21 -8 -45 -14 -52 -12 -7 2 -13 -3 -13 -11 0 -11 -16 -13
-77 -9 -43 2 -86 9 -96 14 -10 5 -27 6 -39 3 -20 -7 -20 -6 -5 21 9 16 18 37
21 47 4 13 16 17 51 17 55 0 85 14 85 40 0 30 -18 33 -55 10 l-34 -21 -41 21
c-46 23 -70 21 -70 -7 0 -15 -2 -16 -10 -3 -7 11 -10 0 -10 -37 0 -46 -3 -53
-20 -53 -24 0 -60 34 -60 55 0 9 -9 34 -21 56 -30 59 -23 79 32 98 26 9 53 22
61 28 21 18 28 6 28 -46 0 -43 1 -44 17 -28 21 21 43 90 43 138 0 40 -19 63
-63 73 -20 5 -27 11 -23 21 3 8 1 15 -3 15 -5 0 -11 -6 -14 -12 -2 -7 -8 -10
-12 -6 -5 5 -4 46 1 93 6 57 6 86 -1 89 -5 3 0 8 12 11 13 4 21 11 18 15 -8
13 53 20 174 19 185 0 209 -18 235 -166 8 -44 21 -93 30 -109 16 -28 17 -26
13 71 -3 84 -8 108 -31 153 -49 97 -122 152 -227 172 -59 11 -77 11 -136 0z
m-93 -450 c-8 -5 -19 -10 -25 -10 -5 0 -3 5 5 10 8 5 20 10 25 10 6 0 3 -5 -5
-10z m277 -394 c-4 -10 -1 -13 9 -9 7 3 14 1 14 -4 0 -15 -79 -43 -122 -43
-30 0 -51 8 -77 28 l-36 27 45 6 c25 3 74 7 109 7 51 2 62 -1 58 -12z m15
-102 c10 -9 -11 -68 -29 -81 -9 -7 -34 -13 -55 -13 -21 0 -38 -4 -38 -10 0
-16 -18 -12 -45 12 -37 32 -33 66 8 73 17 3 52 10 77 14 58 11 75 12 82 5z
m-842 -34 c0 -5 -4 -10 -10 -10 -5 0 -10 5 -10 10 0 6 5 10 10 10 6 0 10 -4
10 -10z m25 -30 c3 -5 1 -10 -4 -10 -6 0 -11 5 -11 10 0 6 2 10 4 10 3 0 8 -4
11 -10z"/>
<path d="M1245 1369 c-86 -16 -92 -18 -98 -38 -3 -12 3 -27 15 -38 11 -10 17
-25 14 -36 -3 -14 0 -17 17 -11 12 4 23 10 25 15 5 13 32 -2 32 -18 0 -11 10
-13 48 -8 67 9 82 15 82 29 0 25 -29 39 -68 33 -21 -4 -31 -3 -24 2 10 6 8 10
-8 14 -12 3 -19 10 -15 16 8 14 81 14 107 0 32 -17 36 1 5 27 -30 25 -50 27
-132 13z"/>
<path d="M1390 1300 c0 -5 5 -10 11 -10 5 0 7 5 4 10 -3 6 -8 10 -11 10 -2 0
-4 -4 -4 -10z"/>
<path d="M1450 1220 c0 -5 5 -10 10 -10 6 0 10 5 10 10 0 6 -4 10 -10 10 -5 0
-10 -4 -10 -10z"/>
<path d="M1215 1050 c-3 -5 -1 -10 4 -10 6 0 11 5 11 10 0 6 -2 10 -4 10 -3 0
-8 -4 -11 -10z"/>
</g>
</svg>
